<?xml version="1.0" encoding="utf-8"?>
<!-- Generator: Adobe Illustrator 23.0.4, SVG Export Plug-In . SVG Version: 6.00 Build 0)  -->
<svg version="1.1" id="Layer_1" xmlns="http://www.w3.org/2000/svg" xmlns:xlink="http://www.w3.org/1999/xlink" x="0px" y="0px"
	 viewBox="0 0 43.1 26.9" style="enable-background:new 0 0 43.1 26.9;" xml:space="preserve">
<style type="text/css">
	.st0{fill-rule:evenodd;clip-rule:evenodd;fill:#090708;}
	.st1{filter:url(#Adobe_OpacityMaskFilter);}
	.st2{fill-rule:evenodd;clip-rule:evenodd;fill:#FFFFFF;}
	.st3{mask:url(#b_2_);fill-rule:evenodd;clip-rule:evenodd;fill:#090708;}
</style>
<path class="st0" d="M6.4,8.2L0,5l7-0.7L6.4,8.2z"/>
<g transform="translate(125.827893 66.072664)">
	<defs>
		<filter id="Adobe_OpacityMaskFilter" filterUnits="userSpaceOnUse" x="-120.6" y="-66.1" width="37.8" height="26.9">
			<feColorMatrix  type="matrix" values="1 0 0 0 0  0 1 0 0 0  0 0 1 0 0  0 0 0 1 0"/>
		</filter>
	</defs>
	<mask maskUnits="userSpaceOnUse" x="-120.6" y="-66.1" width="37.8" height="26.9" id="b_2_">
		<g class="st1">
			<path id="a_2_" class="st2" d="M-120.6-66.1h37.8v26.9h-37.8V-66.1z"/>
		</g>
	</mask>
	<path class="st3" d="M-119.2-49.8c2.9,7.5,11.9,12.2,19.8,10c7.8-2.2,14-9.9,16.6-17.2c-4.2,1.9-8.3,5.1-13.1,4.8
		c-5.3-0.3-6.3-4.8-8.2-8.8c-2.4-5.2-7.4-6.3-12.5-3.7C-121.8-61.2-121-54.6-119.2-49.8"/>
</g>
<path class="st2" d="M9.9,5.4c0.4,1,1.6,1.4,2.6,1c1-0.4,1.5-1.6,1-2.6c-0.4-1-1.6-1.4-2.6-1C9.9,3.2,9.4,4.4,9.9,5.4"/>
<path class="st0" d="M10.8,5"/>
<path class="st0" d="M10.8,5c0.2,0.5,0.8,0.7,1.3,0.5c0.5-0.2,0.7-0.8,0.5-1.3c-0.2-0.5-0.8-0.7-1.3-0.5C10.8,3.9,10.6,4.5,10.8,5"
	/>
</svg>
