<svg width="164" height="94" viewBox="0 0 164 94" xmlns="http://www.w3.org/2000/svg" xmlns:xlink="http://www.w3.org/1999/xlink"><defs><path id="a" d="M.4231329.67803578h37.8111363V27.5302266H.4231329z"/><path id="c" d="M.37328942.75511616H76.3448473V47.9710354H.37328942z"/></defs><g fill="none" fill-rule="evenodd"><path fill="#000" d="M127.435507 75L121 71.74869 128 71z"/><g transform="translate(125.827893 66.072664)"><mask id="b" fill="#fff"><use xlink:href="#a"/></mask><path d="M1.82228861 16.9629767C4.67755299 24.466157 13.6912618 29.1903525 21.6105053 26.9863572c7.8203223-2.1733187 13.9716443-9.8699975 16.6243179-17.23002039-4.1728961 1.92869249-8.2603242 5.07265019-13.0948059 4.79734739-5.294268-.2957538-6.341251-4.75644526-8.2476623-8.82542017C14.4525601.52032223 9.45109921-.58954121 4.37762361 2.074603c-5.20009486 3.45544303-4.38260924 10.0721484-2.555335 14.8883737" fill="#000" mask="url(#b)"/></g><path d="M130.880634 72.1018736c.425758.99109 1.57641 1.4457329 2.577494 1.0170471.988421-.4271126 1.450582-1.5778781 1.021659-2.5626755-.425757-.9895168-1.585906-1.4394401-2.577493-1.0154739-.993962.426326-1.453748 1.5715855-1.02166 2.5611023" fill="#FFF"/><path d="M131.77243 71.7208546c.216835.495545.799284.7283725 1.298639.5128497.50252-.2178824.735183-.7920854.51439-1.2923498-.212087-.4971182-.795327-.7275859-1.298639-.5128497-.497772.2170959-.732017.7960182-.51439 1.2923498M0 73.4553407l28.5162408-56.2561542 88.3660012 27.1487858-18.4879954 43.8195483z" fill="#000"/><g transform="translate(51.439076)"><mask id="d" fill="#fff"><use xlink:href="#c"/></mask><path fill="#000" mask="url(#d)" d="M.37328942 30.0598373L27.7982304.7550375l48.5466169 23.3944427-17.8968415 23.8215552z"/></g><path d="M32.1045516 47.5996126l2.179434.3012599c3.1765608.4349784 4.6342651-1.3796601 5.4351319-3.5734299.9195724-2.513121.7652552-4.5550809-2.4595792-5.0002849l-2.0385701-.2768759-3.1164166 8.5493308zm-2.7840411-15.3257118l12.3303421 1.7037309c8.3893176 1.1578448 7.8678045 7.2365299 6.383985 11.3039316-2.1311605 5.8576564-6.5240575 9.5758169-14.4884092 8.4722461l-3.5089363-.4837463-4.6500924 12.7591034-7.9651431-1.1035708 11.8982539-32.6516949zM55.821764 35.9361356l7.9675171 1.0980647-11.8982538 32.657201-7.9619776-1.1043574zM71.6460856 53.060361l2.179434.3012599c3.1765608.4381247 4.6358478-1.3757272 5.4367146-3.5726433.9179897-2.5170539.7644638-4.5535078-2.4603705-5.0026446l-2.0393615-.2792357-3.1164166 8.5532637zm-2.7800842-15.3225655l12.3263852 1.7021577c8.3916917 1.1578448 7.8693872 7.2349568 6.383985 11.3086512-2.1311605 5.8474308-6.5208921 9.5648047-14.4852437 8.4675265l-3.5113104-.486106-4.6477184 12.7606766-7.965143-1.1004245 11.8990453-32.6524815zM96.8385707 41.6019452l7.6786673 1.0603089-3.899874 10.7037717-5.450959 12.5003188-5.879882-.8125365 3.6505916-12.7528108 3.9014561-10.6990521zm-9.2075946 25.8202533l7.394565 1.0170471-2.5007304 6.8581853-7.3977305-1.0178337 2.5038959-6.8573987zM80.3596276 17.4553754l1.0216591.3995823c1.4877764.5749895 2.4089315-.1360783 3.053107-1.1082903.7343917-1.1130098.8958313-2.1190447-.6101466-2.7058329l-.9575581-.3712655-2.5070614 3.7858064zm.4336709-7.74701993l5.7801694 2.24175113c3.9275713 1.5298968 2.9708044 4.4134967 1.7758352 6.2147633-1.7117342 2.5925655-4.2741915 3.8888483-8.0047116 2.4391826l-1.6468418-.6379159-3.7336855 5.6499994-3.7360596-1.4496657 9.5652939-14.45811483zM93.2147274 14.5310307l3.73052 1.4488791-9.5629198 14.4549685-3.7336856-1.4441596zM98.8888531 24.6467556l1.0216592.3987957c1.4869847.5757761 2.4041837-.1337184 3.0483587-1.1035708.73914-1.1169426.901371-2.1237642-.610147-2.7097658l-.955975-.3673325-2.5038959 3.7818734zm.4352537-7.743087l5.7738382 2.2417511c3.933111 1.525964 2.970805 4.411137 1.782166 6.2147634-1.718065 2.5886326-4.281313 3.8872751-8.0110422 2.4360362l-1.6405108-.6387024-3.7400165 5.6507859-3.7313114-1.4504523 9.5668767-14.4541819zM112.427934 21.9896906l3.599153 1.402471-3.132244 4.7328479-4.103256 5.4360498-2.753969-1.0681748 3.253324-5.7671997 3.136992-4.7359942zm-7.466579 11.4557415l3.466993 1.3474104-2.011663 3.0322633-3.465411-1.3434775 2.010081-3.0361962z" fill="#FFF"/></g></svg>