<svg width="120" height="68" viewBox="0 0 120 68" xmlns="http://www.w3.org/2000/svg" xmlns:xlink="http://www.w3.org/1999/xlink"><defs><path id="a" d="M0 .019035h119.981144v67.964953H0z"/></defs><g fill="none" fill-rule="evenodd"><g><mask id="b" fill="#fff"><use xlink:href="#a"/></mask><path d="M116.664501 54.5706919c-.523104 8.2960382-6.339403 13.7270841-12.929352 13.3994889-29.5055443-1.4933911-59.0039671-3.1157361-88.5036846-4.7126811-6.49672272-.3490875-12.29036211-6.0328311-12.75778949-12.1171135C1.56212677 39.2785756 1.09146236 34.2252736.04072186 22.6337453-.49856763 16.6881861 4.37575475 10.8683245 11.134677 10.090693 43.7037481 6.38684869 76.2928887 2.98194307 108.940943.06745328c6.888404-.59592361 11.723234 4.35252185 10.961237 12.44210342-1.305818 14.0012741-2.352027 28.0272969-3.237679 42.0611352" fill="#95CE24" mask="url(#b)"/></g><path fill="#FFF" d="M32.7326846 40.185128H20.0666679V52H8.8V22.4h11.2666679v10.3233158h12.6660167V22.4H44V52H32.7326846zM58.271768 35.1525664H50.4v-7.4203913h1.5597907c4.6041509-.1278782 6.9059254-1.1951427 8.2057511-5.3321751H68V52h-9.728232V35.1525664zM95.0824704 34.2067151c1.4194733-.2910747 2.1285711-1.0389748 2.1285711-2.2443742 0-1.6642462-1.9311736-2.3292709-4.4935082-2.3292709-2.9954593 0-6.0305258.2910747-6.3461063 4.0325966H74.5461026C75.334415 23.7300494 84.4402534 22.4 91.3772745 22.4 100.36493 22.4 108.8 24.0622249 108.8 32.127418c0 5.4886436-5.361035 7.6912431-9.302597 8.4809178l-9.893512 1.9539733c-2.3649371.4574992-3.6266202 1.0814231-4.2967496 2.2032733h22.9013046V52H73.6c.1973975-11.1410166 6.8590842-14.3839384 13.4019491-15.9639617l8.0805213-1.8293232z"/></g></svg>