<?xml version="1.0" encoding="utf-8"?>
<!-- Generator: Adobe Illustrator 23.0.4, SVG Export Plug-In . SVG Version: 6.00 Build 0)  -->
<svg version="1.1" id="Layer_1" xmlns="http://www.w3.org/2000/svg" xmlns:xlink="http://www.w3.org/1999/xlink" x="0px" y="0px"
	 viewBox="0 0 127.8 87.4" style="enable-background:new 0 0 127.8 87.4;" xml:space="preserve">
<style type="text/css">
	.st0{fill-rule:evenodd;clip-rule:evenodd;}
	.st1{filter:url(#Adobe_OpacityMaskFilter);}
	.st2{fill-rule:evenodd;clip-rule:evenodd;fill:#FFFFFF;}
	.st3{mask:url(#d_1_);fill-rule:evenodd;clip-rule:evenodd;}
</style>
<path class="st0" d="M0,72.7l28.5-56.3l88.4,27.1L98.4,87.4L0,72.7z"/>
<g transform="translate(51.439076)">
	<defs>
		<filter id="Adobe_OpacityMaskFilter" filterUnits="userSpaceOnUse" x="0.4" y="0" width="76" height="47.2">
			<feColorMatrix  type="matrix" values="1 0 0 0 0  0 1 0 0 0  0 0 1 0 0  0 0 0 1 0"/>
		</filter>
	</defs>
	<mask maskUnits="userSpaceOnUse" x="0.4" y="0" width="76" height="47.2" id="d_1_">
		<g class="st1">
			<path id="c_1_" class="st2" d="M0.4,0h76v47.2h-76V0z"/>
		</g>
	</mask>
	<path class="st3" d="M0.4,29.3L27.8,0l48.5,23.4L58.4,47.2L0.4,29.3z"/>
</g>
<path class="st2" d="M32.1,46.8l2.2,0.3c3.2,0.4,4.6-1.4,5.4-3.6c0.9-2.5,0.8-4.6-2.5-5l-2-0.3L32.1,46.8z M29.3,31.5l12.3,1.7
	c8.4,1.2,7.9,7.2,6.4,11.3c-2.1,5.9-6.5,9.6-14.5,8.5L30,52.5l-4.7,12.8l-8-1.1C17.4,64.2,29.3,31.5,29.3,31.5z M55.8,35.2l8,1.1
	L51.9,68.9l-8-1.1L55.8,35.2z M71.6,52.3l2.2,0.3c3.2,0.4,4.6-1.4,5.4-3.6c0.9-2.5,0.8-4.6-2.5-5l-2-0.3L71.6,52.3z M68.9,37
	l12.3,1.7c8.4,1.2,7.9,7.2,6.4,11.3c-2.1,5.8-6.5,9.6-14.5,8.5L69.6,58l-4.6,12.8l-8-1.1C57,69.6,68.9,37,68.9,37z M96.8,40.8
	l7.7,1.1l-3.9,10.7l-5.5,12.5l-5.9-0.8l3.7-12.8C92.9,51.5,96.8,40.8,96.8,40.8z M87.6,66.7l7.4,1l-2.5,6.9l-7.4-1
	C85.1,73.5,87.6,66.7,87.6,66.7z M80.4,16.7l1,0.4c1.5,0.6,2.4-0.1,3.1-1.1c0.7-1.1,0.9-2.1-0.6-2.7l-1-0.4L80.4,16.7z M80.8,9
	l5.8,2.2c3.9,1.5,3,4.4,1.8,6.2c-1.7,2.6-4.3,3.9-8,2.4l-1.6-0.6L75,24.9l-3.7-1.4C71.2,23.4,80.8,9,80.8,9z M93.2,13.8l3.7,1.4
	l-9.6,14.5l-3.7-1.4L93.2,13.8z M98.9,23.9l1,0.4c1.5,0.6,2.4-0.1,3-1.1c0.7-1.1,0.9-2.1-0.6-2.7l-1-0.4
	C101.4,20.1,98.9,23.9,98.9,23.9z M99.3,16.1l5.8,2.2c3.9,1.5,3,4.4,1.8,6.2c-1.7,2.6-4.3,3.9-8,2.4l-1.6-0.6l-3.7,5.7l-3.7-1.5
	C89.8,30.6,99.3,16.1,99.3,16.1z M112.4,21.2l3.6,1.4l-3.1,4.7l-4.1,5.4l-2.8-1.1l3.3-5.8C109.3,26,112.4,21.2,112.4,21.2z
	 M105,32.7l3.5,1.3l-2,3l-3.5-1.3L105,32.7z"/>
</svg>
