<?xml version="1.0" encoding="UTF-8"?><svg width="215" height="44" viewBox="0 0 215 44" xmlns="http://www.w3.org/2000/svg"><path d="M148.338773 17.5983763c1.770436-3.1121225-.661215-5.1715358-3.119854-5.1715358h-24.34889c-4.396402 0-6.048089 2.4301618-7.502761 4.992927l-5.16827 8.9818562c-1.770436 3.1121225.661215 5.1715358 3.119854 5.1715358h24.354288c4.399101 0 6.048089-2.432868 7.502761-4.992927l5.162872-8.9818562zm-17.313027 9.2091764c-.30227.5060582-.823145 1.1284827-2.083501 1.1284827h-6.814559c-2.812186 0-1.781231-1.8916292-1.406093-2.5465281l4.693274-8.1781167c.30227-.503352.823145-1.1284827 2.083501-1.1284827h6.814559c2.814885 0 1.781231 1.8916293 1.406093 2.5465281l-4.693274 8.1781167zm-86.1198286-7.9183221c-1.7704359 3.1121225.6612146 5.1715357 3.1198533 5.1715357l13.4509942.0027062c2.8121862 0 1.7812312 1.8916293 1.4060931 2.5465281-.3805357.6657236-.7610715 1.3260348-.7610715 1.3260348H39.7241539l-2.0861995 3.6344179 34.3426768.0054124 3.6569215-6.3676733c1.7704359-3.1148287-.6612146-5.174242-3.1198534-5.174242l-13.4509941-.0027062c-2.8148851 0-1.7812312-1.8916292-1.4060931-2.546528.0242895-.0432991.8474342-1.3936897.8474342-1.3936897l21.5474995-.0108248 2.078103-3.6344178-28.8910298-.0189434c-4.3964024 0-6.0453906 2.432868-7.5027616 4.992927l-.83394 1.4694631zm50.1362597-1.6805462c.3022696-.5060582.8231448-1.1311889 2.0835007-1.1311889l13.6183222.0054124 2.080802-3.6560674H90.478447c-4.3991012 0-6.0480895 2.4301618-7.5027616 4.992927l-5.1736669 8.9818562c-1.7704359 3.1121225.6639134 5.1715358 3.1198534 5.1715358h20.9186711l2.099693-3.6371241h-12.18524c-2.8121862 0-1.7812312-1.8916292-1.4060931-2.5465281l4.6932742-8.1808229zm57.7523729-4.7629005l-2.078103 3.6208869h10.530854l-8.898059 15.5037825h11.972032l8.900759-15.5037825h8.412269l2.078103-3.6208869H152.79455zm33.727342 0l-2.078103 3.6208869h8.091108l-8.89806 15.5037825h11.972033l8.898059-15.5037825h8.414968L215 12.4457839h-28.478108zM12.5630774 28.182299c.6962995-1.2827357.7151913-2.8360907.0539767-4.1323574L9.49180307 18.642967c-.22670215-.4167538-.35894507-.8903377-.35894507-1.4018083 0-.4952334.12414642-.9634048.34005323-1.3747463l3.49499147-6.09705389s.2051115-.47629006.8744226-.93363676c.6720099-.4573467 1.4600698-.43299095 1.4600698-.43299095l8.6713572.00270619L28.8154624 0H11.5132306C9.96949689.00811858 8.61198283.81185805 7.82932065 2.02152654L1.38450241 13.2711729C.507381 14.7622855 0 16.4942493 0 18.3479919c0 1.8402116.49658566 3.5613506 1.36291173 5.0389323v.0081185l6.97918759 12.0560921 4.22097808-7.2688358zm18.397959 2.5465281c.8771214-1.4884064 1.3845024-3.2203702 1.3845024-5.076819 0-1.8402116-.4992845-3.5586444-1.3629118-5.0389323v-.0054124L24.0034394 8.55157144l-4.2236769 7.26883576c-.6962995 1.2827357-.7151913 2.8360907-.0539767 4.1350636l3.1306487 5.4042684c.2240033.4167538.3562463.8957501.3562463 1.4045144 0 .4952335-.1241465.9634049-.3373544 1.3720401l-3.4922927 6.0997602s-.2078103.47629-.8798202.9336367c-.6693111.4546405-1.4600698.4302848-1.4600698.4302848l-8.66865836-.0054124L3.53277516 44H20.835007c1.5464325-.0081186 2.9012478-.811858 3.6866088-2.0188203l6.4394206-11.2523526z" fill="#FFF" fill-rule="nonzero"/></svg>