<svg width="1766" height="285" xmlns="http://www.w3.org/2000/svg"><g fill="#FFF" fill-rule="nonzero"><path d="M1769.46108 284L1773 4.95562706C1498.73353-31.0500985 1224.46707 139.977098 1038.67365 168.98171c-181.617482 28.354509-263.649698-32.005089-410.514967-31.00493-141.556887 1.000159-251.263473 53.008429-405.206587 80.012723C106.981617 238.332738 44.2365269 232.991889 0 229.60135V284h1769.46108z" opacity=".5"/><path d="M1769.46108 271L1773 19.376167c-277.80539-42.9358127-534.37725 143.785047-716.63174 177.734295-178.910206 33.330173-281.344308-46.929842-428.209577-45.931335-141.556887.998507-256.731108 53.989288-405.206587 86.870133C107.565539 263.601061 38.8042814 254.744302 0 248.643422V271h1769.46108z" opacity=".5"/><path d="M1769.23077 285L1771 54.803313c-383.92308-12.7048499-531.60077 129.097669-714.76923 156.226672C874 238.019044 748.384615 181.042141 601.538462 182.041735 460 183.04133 371.379231 219.096715 222.923077 252.013372 114.593077 276.003647 31.8461538 267.617046 0 262.619072V285h1769.23077z"/></g></svg>